<svg width="60" height="59" viewBox="0 0 60 59" fill="none" xmlns="http://www.w3.org/2000/svg"> <path fill-rule="evenodd" clip-rule="evenodd" d="M55.1613 31.9354V34.8386C57.8325 34.8413 59.9973 37.0061 60 39.6773V57.0967C60 57.6311 59.5667 58.0644 59.0323 58.0644H0.967742C0.433273 58.0644 0 57.6311 0 57.0967V39.6773C0.00266724 37.0061 2.16747 34.8413 4.83871 34.8386V31.9354C4.84138 29.2641 7.00618 27.0993 9.67742 27.0967H26.129C27.6529 27.0965 29.0876 27.8152 30 29.0358C30.9124 27.8152 32.3471 27.0965 33.871 27.0967H50.3226C52.9938 27.0993 55.1586 29.2641 55.1613 31.9354ZM1.93548 56.1289H9.67742V39.6773C9.67529 38.0748 8.37672 36.7762 6.77419 36.7741H4.83871C3.23619 36.7762 1.93762 38.0748 1.93548 39.6773V56.1289ZM6.77419 34.8386V31.9354C6.77633 30.3329 8.0749 29.0343 9.67742 29.0322H26.129C27.7316 29.0343 29.0301 30.3329 29.0323 31.9354V43.5507C28.1958 42.9202 27.1765 42.5796 26.129 42.5806H14.5161C13.4686 42.5796 12.4494 42.9202 11.6129 43.5507V39.6773C11.6102 37.0061 9.44543 34.8413 6.77419 34.8386ZM29.0323 50.3225V47.4193C29.0301 45.8167 27.7316 44.5182 26.129 44.516H14.5161C12.9136 44.5182 11.615 45.8167 11.6129 47.4193V50.3225H29.0323ZM11.6129 56.1289V52.258H48.3871V56.1289H11.6129ZM30.9677 50.3225H48.3871V47.4193C48.385 45.8167 47.0864 44.5182 45.4839 44.516H33.871C32.2684 44.5182 30.9699 45.8167 30.9677 47.4193V50.3225ZM48.3871 39.6773V43.5507C47.5506 42.9202 46.5314 42.5796 45.4839 42.5806H33.871C32.8235 42.5796 31.8042 42.9202 30.9677 43.5507V31.9354C30.9699 30.3329 32.2684 29.0343 33.871 29.0322H50.3226C51.9251 29.0343 53.2237 30.3329 53.2258 31.9354V34.8386C50.5546 34.8413 48.3898 37.0061 48.3871 39.6773ZM50.3226 56.1289H58.0645V39.6773C58.0624 38.0748 56.7638 36.7762 55.1613 36.7741H53.2258C51.6233 36.7762 50.3247 38.0748 50.3226 39.6773V56.1289Z" fill="url(#ube_svg_gradient_63f88c1872994)" class="ube-svg-fill"></path> <path fill-rule="evenodd" clip-rule="evenodd" d="M15.4839 0H44.5161C45.0506 0 45.4839 0.433273 45.4839 0.967742V22.2581C45.4839 22.7925 45.0506 23.2258 44.5161 23.2258H15.4839C14.9494 23.2258 14.5161 22.7925 14.5161 22.2581V0.967742C14.5161 0.433273 14.9494 0 15.4839 0ZM16.4516 21.2903H43.5484V1.93548H16.4516V21.2903Z" fill="url(#ube_svg_gradient_63f88c1872994)" class="ube-svg-fill"></path> <path fill-rule="evenodd" clip-rule="evenodd" d="M18.3872 2.90332H41.613C42.1475 2.90332 42.5807 3.33659 42.5807 3.87106V19.3549C42.5807 19.8894 42.1475 20.3227 41.613 20.3227H18.3872C17.8527 20.3227 17.4194 19.8894 17.4194 19.3549V3.87106C17.4194 3.33659 17.8527 2.90332 18.3872 2.90332ZM25.1614 15.0606L22.3888 18.3872H27.9339L25.1614 15.0606ZM30.4537 18.3872L28.4372 15.9678L32.3795 11.2368L37.742 18.3872H30.4537ZM40.1614 18.3872H40.6452V4.8388H19.3549V18.3872H19.869L24.4174 12.9291C24.6014 12.7084 24.874 12.5807 25.1614 12.5807C25.4488 12.5807 25.7213 12.7084 25.9053 12.9291L27.1779 14.4557L31.6755 9.05816C31.8649 8.83063 32.148 8.70231 32.4439 8.70986C32.7399 8.7174 33.0161 8.85999 33.1936 9.09687L40.1614 18.3872Z" fill="url(#ube_svg_gradient_63f88c1872994)" class="ube-svg-fill"></path> <path fill-rule="evenodd" clip-rule="evenodd" d="M28.0648 8.70987C28.0648 10.3133 26.7649 11.6131 25.1615 11.6131C23.5589 11.6113 22.2601 10.3125 22.2583 8.70987C22.2583 7.10646 23.5581 5.80664 25.1615 5.80664C26.7649 5.80664 28.0648 7.10646 28.0648 8.70987ZM26.1293 8.70987C26.1293 8.1754 25.696 7.74212 25.1615 7.74212C24.6273 7.74272 24.1944 8.17565 24.1938 8.70987C24.1938 9.24434 24.6271 9.67761 25.1615 9.67761C25.696 9.67761 26.1293 9.24434 26.1293 8.70987Z" fill="url(#ube_svg_gradient_63f88c1872994)" class="ube-svg-fill"></path> </svg>