<svg width="60" height="59" viewBox="0 0 60 59" fill="none" xmlns="http://www.w3.org/2000/svg"> <path d="M59.0322 56.1289H58.0644C57.53 56.1289 57.0967 56.5622 57.0967 57.0966C57.0967 57.6311 57.53 58.0644 58.0644 58.0644H59.0322C59.5666 58.0644 59.9999 57.6311 59.9999 57.0966C59.9999 56.5622 59.5666 56.1289 59.0322 56.1289Z" fill="black"></path> <path fill-rule="evenodd" clip-rule="evenodd" d="M52.2581 21.8577L59.7169 29.3153C59.8983 29.497 60.0001 29.7433 60 30V35.8065C60.0003 36.1981 59.7645 36.5513 59.4027 36.7013C59.0409 36.8512 58.6244 36.7682 58.3476 36.4911L54.1936 32.3359V56.129H55.1613C55.6958 56.129 56.129 56.5623 56.129 57.0968C56.129 57.6313 55.6958 58.0645 55.1613 58.0645H0.967743C0.433274 58.0645 0 57.6313 0 57.0968C0 56.5623 0.433274 56.129 0.967743 56.129H5.80645V32.3359L1.65242 36.4911C1.37564 36.7682 0.959123 36.8512 0.597301 36.7013C0.235479 36.5513 -0.000307013 36.1981 0 35.8065V30C-9.44101e-05 29.7433 0.101715 29.497 0.283066 29.3153L6.6871 22.9113C2.99582 20.209 1.2358 15.5908 2.19233 11.1172C3.14886 6.64356 6.64355 3.14887 11.1171 2.19234C15.5907 1.23581 20.209 2.99583 22.9113 6.68711L29.3153 0.283075C29.6938 -0.0943584 30.3062 -0.0943584 30.6847 0.283075L44.5161 14.1157V11.6129C43.9817 11.6129 43.5484 11.1796 43.5484 10.6452V7.74195C43.5484 7.20748 43.9817 6.7742 44.5161 6.7742H52.2581C52.7925 6.7742 53.2258 7.20748 53.2258 7.74195V10.6452C53.2258 11.1796 52.7925 11.6129 52.2581 11.6129V21.8577ZM51.2903 8.70969H45.4839V9.67743H51.2903V8.70969ZM50.3226 11.6129V19.9222L46.4516 16.0512V11.6129H50.3226ZM13.5484 3.87097C8.2037 3.87097 3.87097 8.2037 3.87097 13.5484C3.87717 18.8905 8.20627 23.2196 13.5484 23.2258C18.8931 23.2258 23.2258 18.8931 23.2258 13.5484C23.2258 8.2037 18.8931 3.87097 13.5484 3.87097ZM1.93549 33.4706V30.4004L8.38669 23.9492C9.09979 24.3044 9.84772 24.585 10.6185 24.7863L1.93549 33.4706ZM25.1613 38.7097V56.129H34.8387V38.7097H25.1613ZM52.2581 56.129H36.7742V37.7419C36.7742 37.2075 36.3409 36.7742 35.8065 36.7742H24.1936C23.6591 36.7742 23.2258 37.2075 23.2258 37.7419V56.129H7.74194V30.4004L12.9956 25.148C13.1782 25.1565 13.3633 25.1613 13.5484 25.1613C19.9588 25.1536 25.1536 19.9588 25.1613 13.5484C25.1613 13.3633 25.1565 13.1782 25.148 12.9956L29.4944 8.6492L30 8.1871L30.5056 8.6492L52.2581 30.4004V56.129ZM30.6847 6.08951L58.0645 33.4706V30.4004L30 2.33588L23.9492 8.38668C24.3044 9.09978 24.585 9.84771 24.7863 10.6185L29.3153 6.08951C29.6938 5.71207 30.3062 5.71207 30.6847 6.08951Z" fill="black"></path> <path fill-rule="evenodd" clip-rule="evenodd" d="M26.1289 22.2578C25.5944 22.2578 25.1611 22.6911 25.1611 23.2256V30.9675C25.1611 31.502 25.5944 31.9352 26.1289 31.9352H33.8708C34.4053 31.9352 34.8386 31.502 34.8386 30.9675V23.2256C34.8386 22.6911 34.4053 22.2578 33.8708 22.2578H26.1289ZM32.9031 26.1288H30.9676V24.1933H32.9031V26.1288ZM29.0321 26.1288V24.1933H27.0966V26.1288H29.0321ZM27.0966 28.0643H29.0321V29.9998H27.0966V28.0643ZM30.9676 28.0643V29.9998H32.9031V28.0643H30.9676Z" fill="black"></path> <path d="M32.9033 45.4839C32.3688 45.4839 31.9355 45.9172 31.9355 46.4516V50.3226C31.9355 50.8571 32.3688 51.2903 32.9033 51.2903C33.4378 51.2903 33.871 50.8571 33.871 50.3226V46.4516C33.871 45.9172 33.4378 45.4839 32.9033 45.4839Z" fill="black"></path> <path fill-rule="evenodd" clip-rule="evenodd" d="M49.3546 46.4518V37.7422C49.3546 37.2077 48.9214 36.7744 48.3869 36.7744H40.645C40.1105 36.7744 39.6772 37.2077 39.6772 37.7422V46.4518C39.1427 46.4518 38.7095 46.8851 38.7095 47.4196V50.3228C38.7095 50.8573 39.1427 51.2905 39.6772 51.2905H49.3546C49.8891 51.2905 50.3224 50.8573 50.3224 50.3228V47.4196C50.3224 46.8851 49.8891 46.4518 49.3546 46.4518ZM41.6127 38.7099H47.4192V46.4518H41.6127V38.7099ZM40.645 49.355H48.3869V48.3873H40.645V49.355Z" fill="black"></path> <path fill-rule="evenodd" clip-rule="evenodd" d="M20.3224 46.4518V37.7422C20.3224 37.2077 19.8891 36.7744 19.3547 36.7744H11.6127C11.0783 36.7744 10.645 37.2077 10.645 37.7422V46.4518C10.1105 46.4518 9.67725 46.8851 9.67725 47.4196V50.3228C9.67725 50.8573 10.1105 51.2905 10.645 51.2905H20.3224C20.8569 51.2905 21.2901 50.8573 21.2901 50.3228V47.4196C21.2901 46.8851 20.8569 46.4518 20.3224 46.4518ZM12.5805 38.7099H18.3869V46.4518H12.5805V38.7099ZM11.6127 49.355H19.3547V48.3873H11.6127V49.355Z" fill="black"></path> <path d="M9.14075 16.2892L12.044 18.2247C12.4047 18.4652 12.8814 18.4365 13.2106 18.1543L19.9848 12.3479C20.3855 11.9988 20.4298 11.3919 20.0839 10.9884C19.7381 10.5849 19.1315 10.5357 18.7253 10.8784L12.5075 16.2076L10.2145 14.6789C9.92681 14.4849 9.5573 14.4597 9.24599 14.6129C8.93468 14.7662 8.72921 15.0743 8.70747 15.4206C8.68573 15.7669 8.85105 16.0983 9.14075 16.2892Z" fill="black"></path> </svg>