<svg style="position: absolute; width: 0; height: 0; overflow: hidden;" version="1.1" xmlns="http://www.w3.org/2000/svg" xmlns:xlink="http://www.w3.org/1999/xlink"> <defs> <svg id="g5ere_bath" viewBox="0 0 510.147 510.147" xmlns="http://www.w3.org/2000/svg"><g><path d="m285.675 371.185c-.574-8.265-7.739-14.5-16.003-13.925-8.264.574-14.499 7.738-13.925 16.003l1.003 14.452c.573 8.255 7.725 14.497 16.003 13.925 8.264-.574 14.499-7.738 13.925-16.003z"></path><path d="m356.766 334.257c-3.344-7.58-12.2-11.013-19.778-7.669-7.58 3.344-11.013 12.199-7.669 19.778l5.5 12.468c3.343 7.578 12.197 11.014 19.778 7.669 7.579-3.344 11.013-12.199 7.669-19.778z"></path><path d="m426.228 298.047c-5.715-5.994-15.211-6.221-21.207-.503-5.995 5.717-6.22 15.212-.503 21.207l9.998 10.483c5.715 5.994 15.211 6.222 21.207.503 5.995-5.717 6.22-15.212.503-21.207z"></path><path d="m267.759 448.691c-8.274.404-14.654 7.44-14.25 15.714l.731 14.956c.404 8.275 7.441 14.655 15.714 14.25 8.274-.404 14.654-7.44 14.25-15.714l-.731-14.956c-.404-8.275-7.444-14.648-15.714-14.25z"></path><path d="m354.907 427.628c-2.354-7.943-10.703-12.474-18.645-10.118-7.943 2.354-12.473 10.702-10.118 18.645l4.005 13.511c2.357 7.952 10.712 12.471 18.645 10.118 7.943-2.354 12.473-10.702 10.118-18.645z"></path><path d="m425.403 392.362c-4.279-7.094-13.499-9.376-20.592-5.096-7.094 4.279-9.375 13.498-5.096 20.592l7.279 12.067c4.278 7.093 13.497 9.376 20.592 5.096 7.094-4.279 9.375-13.499 5.096-20.592z"></path><path d="m505.788 368.379-10.554-10.622c-5.838-5.876-15.335-5.908-21.213-.068-5.877 5.839-5.907 15.336-.068 21.213l10.554 10.622c5.832 5.871 15.331 5.913 21.213.068 5.876-5.839 5.906-15.337.068-21.213z"></path><path d="m430.4 199.334-4.541-10.2c-7.506-16.863-25.321-25.978-42.746-23.249l-2.801-6.294c-16.317-36.646-54.769-56.826-93.181-50.682l-9.854-22.389c-23.115-52.514-75.128-86.447-132.507-86.447-79.827 0-144.77 64.944-144.77 144.77v350.23c0 8.284 6.716 15 15 15h60c8.284 0 15-6.716 15-15v-350.23c0-30.2 24.57-54.77 54.77-54.77 21.709 0 41.387 12.836 50.132 32.705l10.583 24.036c-27.506 24.941-36.453 65.054-20.936 99.924l2.804 6.292c-13.432 10.895-18.947 30.109-11.293 47.302l4.541 10.2c9.926 22.299 36.061 32.487 58.546 22.478l168.776-75.131c22.338-9.942 32.421-36.206 22.477-58.545zm-77.494-27.541 2.24 5.032-140.948 62.743-2.242-5.033c-12.785-28.732-.194-62.467 28.989-75.48l36.444-16.234c29.604-13.095 62.841.503 75.517 28.972zm-208.136-111.72c-46.742 0-84.77 38.028-84.77 84.77v335.23h-30v-335.23c0-63.284 51.486-114.77 114.77-114.77 45.49 0 86.725 26.901 105.051 68.533l8.704 19.776-27.405 12.208-8.761-19.898c-13.533-30.75-43.989-50.619-77.589-50.619zm250.952 170.4-168.776 75.131c-7.244 3.223-15.714-.027-18.938-7.271l-4.541-10.201c-2.249-5.05.019-10.958 5.071-13.207 12.921-5.752 172.89-76.962 176.708-78.662 5.039-2.242 10.964.032 13.208 5.071l4.541 10.2c3.215 7.226-.047 15.723-7.273 18.939z"></path></g></svg><svg id="g5ere_bed" xmlns="http://www.w3.org/2000/svg" viewBox="0 0 18.69049 12.94696"> <path d="M17.97251,6.15663V2.19029C17.97251,0.98249,16.99002,0,15.78222,0H2.90827 c-1.2078,0-2.19029,0.98249-2.19029,2.19029v3.96634C0.28092,6.50471,0,7.04087,0,7.64164V9.6129 c0,1.04681,0.85159,1.89825,1.89825,1.89825h0.97351v0.70571c0,0.40326,0.32683,0.7301,0.7301,0.7301s0.7301-0.32683,0.7301-0.7301 v-0.70571h10.02671v0.70571c0,0.40326,0.32683,0.7301,0.7301,0.7301c0.40312,0,0.7301-0.32683,0.7301-0.7301v-0.70571h0.97337 c1.04666,0,1.89825-0.85145,1.89825-1.89825V7.64164C18.69049,7.04087,18.40957,6.50471,17.97251,6.15663z M2.90827,1.46019 h12.87409c0.40255,0,0.7301,0.32755,0.7301,0.7301v3.55309h-1.41157V4.33181c0-0.8051-0.65509-1.46019-1.46019-1.46019h-2.14609 c-0.8051,0-1.46019,0.65509-1.46019,1.46019v1.41157H8.65607V4.33181c0-0.8051-0.65509-1.46019-1.46019-1.46019H5.04993 c-0.80525,0-1.46019,0.65509-1.46019,1.46019v1.41157H2.17817V2.19029C2.17817,1.78774,2.50572,1.46019,2.90827,1.46019z M11.49461,5.74338V4.33181h2.14594v1.41157H11.49461z M5.04979,5.74338V4.33181h2.14594v1.41157H5.04979z M17.23029,9.6129 c0,0.24156-0.1965,0.43806-0.43806,0.43806H1.89825c-0.24156,0-0.43806-0.1965-0.43806-0.43806V7.64164 c0-0.24156,0.1965-0.43806,0.43806-0.43806h14.89398c0.24156,0,0.43806,0.1965,0.43806,0.43806 C17.23029,7.64164,17.23029,9.6129,17.23029,9.6129z"></path> </svg> <svg id="g5ere_crane" xmlns="http://www.w3.org/2000/svg" viewBox="0 0 426.4 426.4"> <g> <g> <path d="M394.4,248.8V132c0,0,0,0,0-0.8s0-1.6,0-1.6v-0.8c0-0.8-0.8-0.8-0.8-1.6c0,0,0-0.8-0.8-0.8c-0.8-0.8-0.8-0.8-1.6-1.6 c0,0,0,0-0.8,0L220.8,56c-0.8,0-1.6-0.8-3.2-0.8H148c0-0.8-0.8-2.4-1.6-3.2L112.8,6.4c-1.6-2.4-4-3.2-6.4-3.2 c-2.4,0-4.8,0.8-6.4,3.2L66.4,52c-0.8,0.8-0.8,2.4-1.6,3.2H8c-4.8,0-8,3.2-8,8V132c0,4.8,3.2,8,8,8h56.8v180.8 c-1.6,0-3.2,0.8-4.8,2.4l-37.6,40c-0.8,1.6-1.6,4-1.6,5.6v46.4c0,4.8,3.2,8,8,8h78.4h78.4c4.8,0,8-3.2,8-8v-46.4 c0-2.4-0.8-4-2.4-5.6l-37.6-40c-0.8-1.6-2.4-1.6-4.8-2.4V140h230.4v116c0,4.8,3.2,8,8,8c12.8,0,23.2,10.4,23.2,23.2 c0,12.8-10.4,23.2-23.2,23.2c-12.8,0-23.2-10.4-23.2-23.2c0-4.8-3.2-8-8-8s-8,3.2-8,8c0,21.6,17.6,39.2,39.2,39.2 c21.6,0,39.2-17.6,39.2-39.2C425.6,268.8,412.8,252.8,394.4,248.8z M106.4,25.6L128.8,56H84L106.4,25.6z M176.8,372v35.2h-70.4 H36.8V372l32.8-35.2h3.2H140h3.2L176.8,372z M132,147.2v30.4l-51.2,28v-30.4L132,147.2z M80.8,156v-16h30.4L80.8,156z M132,195.2 v30.4l-51.2,28v-30.4L132,195.2z M132,243.2v30.4l-51.2,28v-30.4L132,243.2z M132,292v28.8L80.8,320L132,292z M16,124V71.2h200.8 L346.4,124H16z"></path> </g> </g> <g> </g> <g> </g> <g> </g> <g> </g> <g> </g> <g> </g> <g> </g> <g> </g> <g> </g> <g> </g> <g> </g> <g> </g> <g> </g> <g> </g> <g> </g> </svg> <svg id="g5ere_eye" xmlns="http://www.w3.org/2000/svg" viewBox="0 0 1024 1024"> <path d="M1015.421 490.678c-9.129-12.489-226.652-305.789-504.468-305.789s-495.349 293.3-504.468 305.777c-8.646 11.848-8.646 27.917 0 39.765 9.119 12.489 226.652 305.789 504.468 305.789s495.339-293.302 504.468-305.779c8.658-11.846 8.658-27.927 0-39.763zM510.953 768.841c-204.641 0-381.882-194.67-434.349-258.31 52.399-63.696 229.269-258.264 434.349-258.264 204.631 0 381.86 194.635 434.349 258.31-52.4 63.694-229.269 258.264-434.349 258.264z"></path> <path d="M510.953 308.417c-111.457 0-202.138 90.681-202.138 202.138s90.681 202.138 202.138 202.138 202.138-90.681 202.138-202.138-90.681-202.138-202.138-202.138zM510.953 645.313c-74.309 0-134.758-60.451-134.758-134.758s60.451-134.758 134.758-134.758 134.758 60.451 134.758 134.758-60.449 134.758-134.758 134.758z"></path> </svg> <svg id="g5ere_garage" xmlns="http://www.w3.org/2000/svg" viewBox="0 0 17.76621 15.35255"> <g> <path d="M14.13549,9.08547h-0.76786l-0.78847-1.86714c-0.29725-0.70375-0.96644-1.15851-1.70475-1.15851H6.89181 c-0.73832,0-1.4075,0.45475-1.70475,1.15851L4.39858,9.08547H3.63072c-0.68139,0-1.23563,0.55424-1.23563,1.23577v2.0729 c0,0.56143,0.37641,1.03624,0.88999,1.18616v0.53378c0,0.68288,0.5556,1.23848,1.23848,1.23848h0.99206 c0.68288,0,1.23848-0.5556,1.23848-1.23848V13.6299h4.25802v0.48417c0,0.68288,0.5556,1.23848,1.23848,1.23848h0.99206 c0.68288,0,1.23848-0.5556,1.23848-1.23848v-0.53378c0.51358-0.14991,0.88999-0.62473,0.88999-1.18616v-2.0729 C15.37112,9.63972,14.81687,9.08547,14.13549,9.08547z M6.89181,7.12101h3.98246c0.31081,0,0.59626,0.20034,0.7272,0.51019 l0.61416,1.45427H5.55058l0.61416-1.45427C6.29568,7.32135,6.581,7.12101,6.89181,7.12101z M14.13549,10.14666 c0.0961,0,0.17445,0.07835,0.17445,0.17458v2.0729c0,0.09624-0.07835,0.17445-0.17445,0.17445H3.63072 c-0.0961,0-0.17445-0.07821-0.17445-0.17445v-2.0729c0-0.09624,0.07835-0.17458,0.17445-0.17458H14.13549z M5.69277,14.11394 c0,0.09773-0.07943,0.17729-0.17716,0.17729H4.52356c-0.09773,0-0.17729-0.07957-0.17729-0.17729v-0.48417h1.34651V14.11394z M13.41981,14.11394c0,0.09773-0.07943,0.17729-0.17716,0.17729h-0.99206c-0.09773,0-0.17729-0.07957-0.17729-0.17729v-0.48417 h1.34651V14.11394z"></path> <path d="M7.12101,11.88828h3.52418c0.29305,0,0.53066-0.23761,0.53066-0.53066s-0.23761-0.53066-0.53066-0.53066 H7.12101c-0.29305,0-0.53066,0.23761-0.53066,0.53066S6.82796,11.88828,7.12101,11.88828z"></path> <path d="M12.66265,11.88828c0.27746,0,0.5434-0.24412,0.53066-0.53066 c-0.01288-0.28749-0.23327-0.53066-0.53066-0.53066c-0.2776,0-0.54354,0.24412-0.53066,0.53066 C12.14487,11.64511,12.36513,11.88828,12.66265,11.88828z"></path> <path d="M5.10356,11.88828c0.2776,0,0.54354-0.24412,0.53066-0.53066 c-0.01288-0.28749-0.23314-0.53066-0.53066-0.53066c-0.2776,0-0.54354,0.24412-0.53066,0.53066 C4.58577,11.64511,4.80603,11.88828,5.10356,11.88828z"></path> <path d="M17.46218,3.99574L9.10974,0.05083c-0.14354-0.06777-0.30972-0.06777-0.45326,0L0.30403,3.99574 C0.11847,4.08344,0,4.27036,0,4.47557v10.34632c0,0.29305,0.23761,0.53052,0.53066,0.53052s0.53066-0.23748,0.53066-0.53052 V4.81186L8.8831,1.11744l7.82178,3.69443v10.01003c0,0.29305,0.23761,0.53052,0.53066,0.53052s0.53066-0.23748,0.53066-0.53052 V4.47557C17.76621,4.27036,17.64774,4.08344,17.46218,3.99574z"></path> </g> </svg> <svg id="g5ere_heart" xmlns="http://www.w3.org/2000/svg" viewBox="0 0 1024 1024"> <path d="M744.578 76.8c-84.79 0-159.121 37.808-214.954 109.34-7.446 9.54-14.083 19.084-19.966 28.328-5.883-9.246-12.52-18.788-19.966-28.328-55.833-71.532-130.163-109.34-214.953-109.34-160.176 0-274.738 134.118-274.738 295.052 0 184.020 150.821 357.451 489.027 562.336 6.341 3.841 13.486 5.762 20.631 5.762s14.29-1.919 20.631-5.759c338.206-204.884 489.027-378.315 489.027-562.336 0.001-160.851-114.467-295.054-274.737-295.054zM834.479 600.989c-70.41 78.563-176.812 161.287-324.822 252.486-148.010-91.199-254.411-173.923-324.822-252.484-70.79-78.989-105.202-153.94-105.202-229.137 0-115.875 78.308-215.42 195.103-215.42 59.479 0 110.194 25.861 150.737 76.867 32.419 40.791 46.078 82.911 46.174 83.212 5.186 16.633 20.588 27.963 38.011 27.963s32.825-11.328 38.011-27.963c0.125-0.402 13.374-41.209 44.728-81.376 40.763-52.224 91.963-78.704 152.179-78.704 116.919 0 195.103 99.64 195.103 215.42 0.001 75.197-34.412 150.148-105.202 229.137z"></path> </svg> <svg id="g5ere_house-plan" viewBox="0 0 512 512" xmlns="http://www.w3.org/2000/svg"><path d="m512 50v412c0 27.570312-22.429688 50-50 50h-48.667969c-11.046875 0-20-8.953125-20-20s8.953125-20 20-20h48.667969c5.515625 0 10-4.484375 10-10v-184.988281h-176.667969c-11.046875 0-20-8.953125-20-20s8.953125-20 20-20h176.667969v-187.011719c0-5.515625-4.484375-10-10-10h-225.925781v58.667969c0 11.046875-8.957031 20-20 20-11.046875 0-20-8.953125-20-20v-58.667969h-146.074219c-5.515625 0-10 4.484375-10 10v186h156.074219v-58.667969c0-11.046875 8.953125-20 20-20 11.042969 0 20 8.953125 20 20v157.332031c0 11.046876-8.957031 20-20 20-11.046875 0-20-8.953124-20-20v-58.664062h-156.074219v186c0 5.515625 4.484375 10 10 10h146.074219v-58.667969c0-11.046875 8.953125-20 20-20 11.042969 0 20 8.953125 20 20v58.667969h98.589843c11.046876 0 20 8.953125 20 20s-8.953124 20-20 20h-284.664062c-27.570312 0-50-22.429688-50-50v-412c0-27.570312 22.429688-50 50-50h412c27.570312 0 50 22.429688 50 50zm0 0"></path></svg> <svg id="g5ere_house" xmlns="http://www.w3.org/2000/svg" viewBox="0 0 1024 1024"> <path d="M531.998 983.998c0 22.094-17.906 40-40 40h-451.998c-22.094 0-40-17.906-40-40v-550.662c0-11.875 5.273-23.133 14.39-30.726l471.999-393.335c14.836-12.367 36.383-12.367 51.219 0l471.998 393.335c16.969 14.141 19.258 39.359 5.117 56.336-14.141 16.969-39.367 19.258-56.336 5.117l-446.389-371.991-431.998 359.999v491.928h411.999c22.093 0 40 17.906 40 40zM960.676 875.788c-43.89 52.914-109.429 101.359-194.804 143.999-11.258 5.617-24.492 5.617-35.75 0-85.375-42.64-150.913-91.086-194.796-143.999-130.281-157.054-39.562-330.389 94.672-330.389 53.492 0 92.843 21.898 117.999 42.453 25.156-20.555 64.508-42.453 117.999-42.453 134.492 0 224.632 173.718 94.68 330.389zM865.997 625.398c-55.336 0-84.382 41.484-84.664 41.898-16.609 25.055-51.633 23.523-66.57 0.164-2.453-3.445-31.172-42.062-84.765-42.062-86.218 0-160.273 166.156 117.999 313.624 278.273-147.468 204.234-313.624 118-313.624z"></path> </svg> <svg id="g5ere_interface" viewBox="0 0 512 512" xmlns="http://www.w3.org/2000/svg"><path d="m492 0h-472c-11.046875 0-20 8.953125-20 20v472c0 11.046875 8.953125 20 20 20h472c11.046875 0 20-8.953125 20-20v-472c0-11.046875-8.953125-20-20-20zm-20 472h-432v-432h432zm-383.660156-68.339844v-59.734375c0-11.046875 8.953125-20 20-20s20 8.953125 20 20v39.734375h39.734375c11.046875 0 20 8.953125 20 20s-8.953125 20-20 20h-59.734375c-11.046875 0-20-8.953125-20-20zm235.585937-295.320312c0-11.046875 8.953125-20 20-20h59.734375c11.046875 0 20 8.953125 20 20v59.734375c0 11.046875-8.953125 20-20 20s-20-8.953125-20-20v-39.734375h-39.734375c-11.046875 0-20-8.953125-20-20zm-116.890625 216.625h97.929688c11.042968 0 20-8.957032 20-20v-97.929688c0-11.042968-8.957032-20-20-20h-97.929688c-11.042968 0-20 8.957032-20 20v97.929688c0 11.042968 8.957032 20 20 20zm20-97.929688h57.929688v57.929688h-57.929688zm0 0"></path></svg><svg id="g5ere_passport" xmlns="http://www.w3.org/2000/svg" viewBox="0 0 512 512"> <g> <g> <g> <path d="M316,331H196c-11.046,0-20,8.954-20,20c0,11.046,8.954,20,20,20h120c11.046,0,20-8.954,20-20 C336,339.954,327.046,331,316,331z"></path> <path d="M256,141c-44.112,0-80,35.888-80,80s35.888,80,80,80s80-35.888,80-80S300.112,141,256,141z M256,261 c-22.056,0-40-17.944-40-40c0-22.056,17.944-40,40-40c22.056,0,40,17.944,40,40C296,243.056,278.056,261,256,261z"></path> <path d="M386,0H86C74.954,0,66,8.954,66,20v472c0,11.046,8.954,20,20,20h300c33.084,0,60-26.916,60-60V60 C446,26.916,419.084,0,386,0z M406,452c0,11.028-8.972,20-20,20H106V40h280c11.028,0,20,8.972,20,20V452z"></path> </g> </g> </g> </svg> <svg id="g5ere_real-estate" xmlns="http://www.w3.org/2000/svg" viewBox="0 0 512 512"> <g> <g> <path d="M206.932,120.359c-4.73-4.73-12.399-4.73-17.13,0l-3.331,3.331c-4.73,4.73-4.73,12.399,0,17.13 c2.366,2.365,5.466,3.548,8.566,3.548s6.2-1.182,8.564-3.548l3.331-3.331C211.661,132.759,211.661,125.09,206.932,120.359z"></path> </g> </g> <g> <g> <path d="M291.901,171.916c-9.504-9.504-22.138-14.738-35.574-14.738c-13.444,0-26.082,5.235-35.586,14.738 c-9.504,9.504-14.738,22.138-14.738,35.575c-0.001,27.75,22.574,50.326,50.324,50.326c13.436,0,26.07-5.235,35.574-14.739 c9.504-9.505,14.739-22.143,14.739-35.586C306.64,194.056,301.406,181.422,291.901,171.916z M274.772,225.948 c-4.928,4.93-11.48,7.644-18.445,7.644c-14.393,0-26.101-11.709-26.101-26.101c0-6.964,2.714-13.515,7.644-18.444 c4.928-4.93,11.483-7.644,18.458-7.644c6.966,0,13.516,2.714,18.445,7.644c4.93,4.93,7.645,11.48,7.645,18.445 C282.418,214.465,279.703,221.018,274.772,225.948z"></path> </g> </g> <g> <g> <path d="M439.267,361.11v-89.422l11.881,11.881c2.366,2.365,5.465,3.548,8.564,3.548s6.2-1.182,8.564-3.548 c4.73-4.73,4.73-12.399,0-17.13l-32.557-32.557l-31.852-31.852c-0.432-13.037-0.126-57.516,0.445-97.256 c0.046-3.241-1.209-6.367-3.485-8.676c-2.276-2.31-5.383-3.609-8.626-3.609h-56.66c-6.689,0-12.112,5.423-12.112,12.112v16.99 l-58.863-58.863c-4.73-4.73-12.399-4.73-17.13,0l-30.986,30.986c-4.73,4.73-4.73,12.399,0,17.13c4.73,4.731,12.399,4.73,17.13,0 l22.422-22.423L383.61,216.031c0.008,0.008,0.016,0.017,0.025,0.025c0.002,0.002,0.004,0.004,0.006,0.006l31.402,31.402v125.418 v55.715h-90.634v-130.41c0-6.689-5.423-12.112-12.112-12.112H200.357c-6.69,0-12.112,5.423-12.112,12.112v130.41H96.957v-55.715 V247.464l80.855-80.855c4.73-4.73,4.73-12.399,0-17.13c-4.73-4.729-12.399-4.729-17.13,0l-84.403,84.403l-35.694,35.694 c-4.73,4.73-4.73,12.399,0,17.13c2.365,2.365,5.465,3.548,8.564,3.548c3.099,0,6.2-1.182,8.564-3.548l15.016-15.016v89.422 C32.021,364.768,0,399.061,0,440.709c0,6.689,5.423,12.112,12.112,12.112h72.733h115.512h111.939h114.858h72.733 c6.689,0,12.112-5.423,12.112-12.112C512,399.061,479.979,364.768,439.267,361.11z M379.543,155.415 c-0.059,8.344-0.093,15.76-0.099,22.19l-31.792-31.792v-29.102h32.276C379.807,126.534,379.646,140.998,379.543,155.415z M72.733,428.597H25.55c5.035-22.627,23.872-40.116,47.182-43.139V428.597z M300.185,428.597h-87.715V310.299h87.715V428.597z M439.267,428.597v-43.139c23.311,3.023,42.146,20.513,47.182,43.139H439.267z"></path> </g> </g> </svg> <svg id="g5ere_review" xmlns="http://www.w3.org/2000/svg" viewBox="0 0 1024 1024"> <path d="M512 0c-282.969 0-512 228.992-512 512 0 89.805 23.422 177.516 67.899 254.875l-65.969 204.859c-4.602 14.281-0.82 29.938 9.789 40.547 10.508 10.508 26.125 14.43 40.547 9.789l204.859-65.969c77.359 44.477 165.070 67.899 254.875 67.899 282.969 0 512-228.992 512-512 0-282.969-228.993-512-512-512zM512 944c-81.117 0-160.187-22.633-228.664-65.453-9.851-6.156-22.086-7.82-33.469-4.156l-147.883 47.625 47.625-147.883c3.61-11.219 2.086-23.469-4.164-33.469-42.813-68.477-65.445-147.547-65.445-228.664 0-238.203 193.797-432 432-432s432 193.797 432 432-193.797 432-432 432zM562 512c0 27.609-22.383 50-50 50s-50-22.391-50-50c0-27.617 22.383-50 50-50s50 22.383 50 50zM762 512c0 27.609-22.383 50-50 50s-50-22.391-50-50c0-27.617 22.383-50 50-50s50 22.383 50 50zM362 512c0 27.609-22.383 50-50 50-27.609 0-50-22.391-50-50 0-27.617 22.391-50 50-50 27.617 0 50 22.383 50 50z"></path> </svg> <svg id="g5ere_text-editor" viewBox="-49 0 511 512" xmlns="http://www.w3.org/2000/svg"><path d="m392.5 49.941406h-224.738281v-29.941406c0-11.046875-8.953125-20-20-20h-127.261719c-11.046875 0-20 8.953125-20 20v472c0 11.046875 8.953125 20 20 20h372c11.046875 0 20-8.953125 20-20v-422.058594c0-11.046875-8.953125-20-20-20zm-20 422.058594h-332v-432h87.261719v29.941406c0 11.046875 8.957031 20 20 20h224.738281zm-38.28125-58.445312c0 11.046874-8.953125 20-20 20h-215.4375c-11.046875 0-20-8.953126-20-20 0-11.042969 8.953125-20 20-20h215.4375c11.046875 0 20 8.957031 20 20zm-235.4375-97.921876h215.4375c11.046875 0 20 8.953126 20 20 0 11.042969-8.953125 20-20 20h-215.4375c-11.046875 0-20-8.957031-20-20 0-11.046874 8.953125-20 20-20zm39.171875-187.246093h137.09375c11.046875 0 20 8.953125 20 20s-8.953125 20-20 20h-48.546875v97.511719c0 11.042968-8.953125 20-20 20s-20-8.957032-20-20v-97.511719h-48.546875c-11.046875 0-20-8.953125-20-20s8.953125-20 20-20zm0 0"></path></svg><svg id="g5ere_town" viewBox="0 0 90 74" xmlns="http://www.w3.org/2000/svg"> <g fill="none"> <g> <g> <g> <g> <g> <path d="M87.9908416,62.7860195 C87.3705232,62.7860195 86.8672461,63.2885652 86.8672461,63.909615 L86.8672461,65.2204764 C86.8665146,66.1465648 86.1181824,66.8992861 85.1920938,66.9058697 L85.1474719,66.9058697 L85.1474719,63.2102938 C87.3412629,62.6872659 88.8898642,60.7290204 88.8927903,58.4737828 L88.8927903,53.4805127 C88.8927903,50.7907596 86.7128979,48.6115989 84.0238764,48.6115989 C81.3348549,48.6115989 79.1549625,50.7907596 79.1549625,53.4805127 L79.1549625,58.4737828 C79.15862,60.7290204 80.7072213,62.6872659 82.9002809,63.2102938 L82.9002809,72.5531075 C82.9002809,73.1734258 83.4035581,73.676703 84.0238764,73.676703 C84.6441948,73.676703 85.1474719,73.1734258 85.1474719,72.5531075 L85.1474719,69.1530607 L85.1957513,69.1530607 C87.3610135,69.1413566 89.1107794,67.3850071 89.1144371,65.2204764 L89.1144371,63.909615 C89.1144371,63.2885652 88.6118914,62.7860195 87.9908416,62.7860195 L87.9908416,62.7860195 Z M81.4021536,58.4737828 L81.4021536,53.4805127 C81.4021536,52.0321277 82.576223,50.8587899 84.0238764,50.8587899 C85.4722612,50.8587899 86.6455993,52.0321277 86.6455993,53.4805127 L86.6455993,58.4737828 C86.6441363,59.4854577 86.0611247,60.405694 85.1474719,60.8387464 L85.1474719,59.9024169 C85.1474719,59.2820985 84.6441948,58.7788213 84.0238764,58.7788213 C83.4035581,58.7788213 82.9002809,59.2820985 82.9002809,59.9024169 L82.9002809,60.8387464 C81.9866281,60.405694 81.4036165,59.4854577 81.4021536,58.4737828 Z" fill="#1E1D85"></path> <path d="M77.9589478,65.9293071 L77.9589478,25.5713073 C77.9589478,24.9502575 77.4556706,24.4477118 76.8353522,24.4477118 L52.9589478,24.4477118 C52.3378979,24.4477118 51.8353522,24.9502575 51.8353522,25.5713073 L51.8353522,72.605776 L54.0825433,72.605776 L54.0825433,58.5301088 L59.7941537,58.5301088 L59.7941537,72.605776 L62.0413448,72.605776 L62.0413448,58.5301088 L67.7529552,58.5301088 L67.7529552,65.8517674 C65.8371371,66.2153266 64.4779963,67.9277856 64.5584622,69.8750584 C64.6389279,71.8230629 66.1363238,73.4170178 68.0748185,73.6203768 C70.0140449,73.823736 71.8084328,72.5743212 72.2912277,70.6855689 C72.7740227,68.7968165 71.7989232,66.8393024 70.0001463,66.0873127 L70.0001463,58.5301088 L75.7117567,58.5301088 L75.7117567,65.9695401 C73.8478757,66.5613296 72.7008719,68.4303313 73.0176146,70.3600479 C73.3343575,72.2890333 75.0190191,73.6942592 76.9743388,73.6584154 C78.9289268,73.623303 80.5616515,72.1595564 80.8089009,70.2195985 C81.0561506,68.2803723 79.8425796,66.4530665 77.9589478,65.9293071 L77.9589478,65.9293071 Z M68.4808052,71.4002517 C67.5503277,71.4002517 66.795412,70.645336 66.795412,69.7148584 C66.795412,68.7836494 67.5503277,68.0294652 68.4808052,68.0294652 C69.4120142,68.0294652 70.1661985,68.7836494 70.1661985,69.7148584 C70.165467,70.645336 69.4112828,71.3987886 68.4808052,71.4002517 Z M75.7117567,48.3241163 L70.0001463,48.3241163 L70.0001463,42.6125058 L75.7117567,42.6125058 L75.7117567,48.3241163 Z M67.7529552,34.6537043 L67.7529552,40.3653148 L62.0413448,40.3653148 L62.0413448,34.6537043 L67.7529552,34.6537043 Z M62.0413448,32.4065133 L62.0413448,26.6949028 L67.7529552,26.6949028 L67.7529552,32.4065133 L62.0413448,32.4065133 Z M59.7941537,40.3653148 L54.0825433,40.3653148 L54.0825433,34.6537043 L59.7941537,34.6537043 L59.7941537,40.3653148 Z M59.7941537,42.6125058 L59.7941537,48.3241163 L54.0825433,48.3241163 L54.0825433,42.6125058 L59.7941537,42.6125058 Z M62.0413448,42.6125058 L67.7529552,42.6125058 L67.7529552,48.3241163 L62.0413448,48.3241163 L62.0413448,42.6125058 Z M75.7117567,40.3653148 L70.0001463,40.3653148 L70.0001463,34.6537043 L75.7117567,34.6537043 L75.7117567,40.3653148 Z M75.7117567,32.4065133 L70.0001463,32.4065133 L70.0001463,26.6949028 L75.7117567,26.6949028 L75.7117567,32.4065133 Z M59.7941537,26.6949028 L59.7941537,32.4065133 L54.0825433,32.4065133 L54.0825433,26.6949028 L59.7941537,26.6949028 Z M54.0825433,56.2829178 L54.0825433,50.5713073 L59.7941537,50.5713073 L59.7941537,56.2829178 L54.0825433,56.2829178 Z M62.0413448,56.2829178 L62.0413448,50.5713073 L67.7529552,50.5713073 L67.7529552,56.2829178 L62.0413448,56.2829178 Z M70.0001463,56.2829178 L70.0001463,50.5713073 L75.7117567,50.5713073 L75.7117567,56.2829178 L70.0001463,56.2829178 Z M76.9077715,71.4002517 C75.977294,71.4002517 75.2223783,70.645336 75.2223783,69.7148584 C75.2223783,68.7836494 75.977294,68.0294652 76.9077715,68.0294652 C77.8389805,68.0294652 78.5931648,68.7836494 78.5931648,69.7148584 C78.5924333,70.645336 77.8382491,71.3987886 76.9077715,71.4002517 Z" fill="#0EC6D5"></path> <path d="M88.876697,71.4821805 L47.9964009,71.4821805 L47.9964009,9.65370431 C47.9964009,9.03265449 47.4931238,8.5301088 46.8728054,8.5301088 L42.6907772,8.5301088 L42.6907772,7.60914082 L44.2196277,7.60914082 C44.8399461,7.60914082 45.3432232,7.10586367 45.3432232,6.48554532 L45.3432232,1.17992154 C45.3432232,0.558871723 44.8399461,0.05632603 44.2196277,0.05632603 L17.6907772,0.05632603 C17.0697273,0.05632603 16.5671816,0.558871723 16.5671816,1.17992154 L16.5671816,6.48554532 C16.5671816,7.10586367 17.0697273,7.60914082 17.6907772,7.60914082 L19.2196277,7.60914082 L19.2196277,8.5301088 L15.0375994,8.5301088 C14.4165496,8.5301088 13.9140039,9.03265449 13.9140039,9.65370431 L13.9140039,65.9424742 C12.7918715,66.2672637 11.8738296,67.0755794 11.4085908,68.1472378 C10.9440835,69.2181648 10.980659,70.4412453 11.509539,71.4821805 L10.0984609,71.4821805 C10.9360371,69.8282419 10.505179,67.812939 9.06264625,66.6469159 C7.62084494,65.4808931 5.55945693,65.4808931 4.11765562,66.6469159 C2.67512285,67.812939 2.24426498,69.8282419 3.08257266,71.4821805 L1.12359551,71.4821805 C0.503277154,71.4821805 5.32907052e-15,71.9854577 5.32907052e-15,72.605776 C5.32907052e-15,73.2268258 0.503277154,73.7293715 1.12359551,73.7293715 L88.876697,73.7293715 C89.4970154,73.7293715 90.0002925,73.2268258 90.0002925,72.605776 C90.0002925,71.9854577 89.4970154,71.4821805 88.876697,71.4821805 L88.876697,71.4821805 Z M6.59015094,68.0294652 C7.52135993,68.0294652 8.27554419,68.7836494 8.27554419,69.7148584 C8.27554419,70.645336 7.52135993,71.4002517 6.59015094,71.4002517 C5.65967341,71.4002517 4.90475768,70.645336 4.90475768,69.7148584 C4.90622079,68.7843809 5.65967341,68.0301966 6.59015094,68.0294652 Z M23.4440835,68.0294652 C24.3752925,68.0294652 25.1294768,68.7836494 25.1294768,69.7148584 C25.1294768,70.645336 24.3752925,71.4002517 23.4440835,71.4002517 C22.513606,71.4002517 21.7586903,70.645336 21.7586903,69.7148584 C21.7601534,68.7843809 22.513606,68.0301966 23.4440835,68.0294652 Z M24.1199964,65.8444522 L24.1199964,58.5301088 L29.8316069,58.5301088 L29.8316069,71.4821805 L26.9523934,71.4821805 C27.5156543,70.3724835 27.5185803,69.0608906 26.9597086,67.9482678 C26.4008369,66.8356449 25.3467345,66.0543949 24.1199964,65.8444522 Z M29.8316069,10.7772998 L29.8316069,16.4889103 L24.1199964,16.4889103 L24.1199964,10.7772998 L29.8316069,10.7772998 Z M45.7492099,56.2829178 L40.0375994,56.2829178 L40.0375994,50.5713073 L45.7492099,50.5713073 L45.7492099,56.2829178 Z M32.0787979,32.4065133 L32.0787979,26.6949028 L37.7904084,26.6949028 L37.7904084,32.4065133 L32.0787979,32.4065133 Z M37.7904084,34.6537043 L37.7904084,40.3653148 L32.0787979,40.3653148 L32.0787979,34.6537043 L37.7904084,34.6537043 Z M29.8316069,32.4065133 L24.1199964,32.4065133 L24.1199964,26.6949028 L29.8316069,26.6949028 L29.8316069,32.4065133 Z M29.8316069,34.6537043 L29.8316069,40.3653148 L24.1199964,40.3653148 L24.1199964,34.6537043 L29.8316069,34.6537043 Z M29.8316069,42.6125058 L29.8316069,48.3241163 L24.1199964,48.3241163 L24.1199964,42.6125058 L29.8316069,42.6125058 Z M32.0787979,42.6125058 L37.7904084,42.6125058 L37.7904084,48.3241163 L32.0787979,48.3241163 L32.0787979,42.6125058 Z M37.7904084,50.5713073 L37.7904084,56.2829178 L32.0787979,56.2829178 L32.0787979,50.5713073 L37.7904084,50.5713073 Z M45.7492099,48.3241163 L40.0375994,48.3241163 L40.0375994,42.6125058 L45.7492099,42.6125058 L45.7492099,48.3241163 Z M45.7492099,40.3653148 L40.0375994,40.3653148 L40.0375994,34.6537043 L45.7492099,34.6537043 L45.7492099,40.3653148 Z M45.7492099,32.4065133 L40.0375994,32.4065133 L40.0375994,26.6949028 L45.7492099,26.6949028 L45.7492099,32.4065133 Z M45.7492099,24.4477118 L40.0375994,24.4477118 L40.0375994,18.7361013 L45.7492099,18.7361013 L45.7492099,24.4477118 Z M37.7904084,24.4477118 L32.0787979,24.4477118 L32.0787979,18.7361013 L37.7904084,18.7361013 L37.7904084,24.4477118 Z M32.0787979,16.4889103 L32.0787979,10.7772998 L37.7904084,10.7772998 L37.7904084,16.4889103 L32.0787979,16.4889103 Z M29.8316069,18.7361013 L29.8316069,24.4477118 L24.1199964,24.4477118 L24.1199964,18.7361013 L29.8316069,18.7361013 Z M21.8728054,24.4477118 L16.1611949,24.4477118 L16.1611949,18.7361013 L21.8728054,18.7361013 L21.8728054,24.4477118 Z M21.8728054,26.6949028 L21.8728054,32.4065133 L16.1611949,32.4065133 L16.1611949,26.6949028 L21.8728054,26.6949028 Z M21.8728054,34.6537043 L21.8728054,40.3653148 L16.1611949,40.3653148 L16.1611949,34.6537043 L21.8728054,34.6537043 Z M21.8728054,42.6125058 L21.8728054,48.3241163 L16.1611949,48.3241163 L16.1611949,42.6125058 L21.8728054,42.6125058 Z M21.8728054,50.5713073 L21.8728054,56.2829178 L16.1611949,56.2829178 L16.1611949,50.5713073 L21.8728054,50.5713073 Z M24.1199964,50.5713073 L29.8316069,50.5713073 L29.8316069,56.2829178 L24.1199964,56.2829178 L24.1199964,50.5713073 Z M32.0787979,58.5301088 L37.7904084,58.5301088 L37.7904084,71.4821805 L32.0787979,71.4821805 L32.0787979,58.5301088 Z M40.0375994,58.5301088 L45.7492099,58.5301088 L45.7492099,71.4821805 L40.0375994,71.4821805 L40.0375994,58.5301088 Z M45.7492099,16.4889103 L40.0375994,16.4889103 L40.0375994,10.7772998 L45.7492099,10.7772998 L45.7492099,16.4889103 Z M18.8143727,2.30351704 L43.0960322,2.30351704 L43.0960322,5.36194981 L18.8143727,5.36194981 L18.8143727,2.30351704 Z M21.4668187,7.60914082 L40.4435861,7.60914082 L40.4435861,8.5301088 L21.4668187,8.5301088 L21.4668187,7.60914082 Z M21.8728054,10.7772998 L21.8728054,16.4889103 L16.1611949,16.4889103 L16.1611949,10.7772998 L21.8728054,10.7772998 Z M15.0171172,68.0294652 C15.9483262,68.0294652 16.7025105,68.7836494 16.7025105,69.7148584 C16.7025105,70.645336 15.9483262,71.4002517 15.0171172,71.4002517 C14.0866397,71.4002517 13.331724,70.645336 13.331724,69.7148584 C13.3331871,68.7843809 14.0866397,68.0301966 15.0171172,68.0294652 Z M16.1611949,65.9527154 L16.1611949,58.5301088 L21.8728054,58.5301088 L21.8728054,66.1121839 C20.8808813,66.5415788 20.1106039,67.3615989 19.7441187,68.3783942 C19.3776333,69.3951895 19.4471266,70.518785 19.9365052,71.4821805 L18.5254272,71.4821805 C19.0506496,70.4470974 19.0901509,69.2327949 18.6344217,68.1655255 C18.177961,67.0982562 17.2723549,66.2884773 16.1611949,65.9527154 L16.1611949,65.9527154 Z" fill="#1E1D85"></path> </g> </g> </g> </g> </g> </g> </svg><svg id="g5ere_year" xmlns="http://www.w3.org/2000/svg" viewBox="0 0 17.57854 17.3147"> <g> <g> <path d="M16.25932,10.12497V5.30984c0,0,0,0,0-0.03298c0-0.03298,0-0.06596,0-0.06596V5.17792 c0-0.03298-0.03298-0.03298-0.03298-0.06596c0,0,0-0.03298-0.03298-0.03298C16.16038,5.046,16.16038,5.046,16.1274,5.01302 c0,0,0,0-0.03298,0L9.10258,2.1767c-0.03298,0-0.06596-0.03298-0.13192-0.03298H6.10137 c0-0.03298-0.03298-0.09894-0.06596-0.13192L4.65023,0.13192C4.58427,0.03298,4.48533,0,4.38639,0 S4.18851,0.03298,4.12255,0.13192L2.73737,2.0118C2.70439,2.04478,2.70439,2.11074,2.67141,2.14372H0.3298 C0.13192,2.14372,0,2.27565,0,2.47353v2.83631c0,0.19788,0.13192,0.3298,0.3298,0.3298h2.34161v7.45356 c-0.06596,0-0.13192,0.03298-0.19788,0.09894l-1.55008,1.64902c-0.03298,0.06596-0.06596,0.1649-0.06596,0.23086v1.91286 c0,0.19788,0.13192,0.3298,0.3298,0.3298h3.23208h3.23208c0.19788,0,0.3298-0.13192,0.3298-0.3298v-1.91286 c0-0.09894-0.03298-0.1649-0.09894-0.23086l-1.55008-1.64902c-0.03298-0.06596-0.09894-0.06596-0.19788-0.09894V5.63964h9.49835 v4.78215c0,0.19788,0.13192,0.3298,0.3298,0.3298c0.52769,0,0.95643,0.42875,0.95643,0.95643s-0.42874,0.95643-0.95643,0.95643 c-0.52769,0-0.95643-0.42874-0.95643-0.95643c0-0.19788-0.13192-0.3298-0.3298-0.3298s-0.3298,0.13192-0.3298,0.3298 c0,0.89047,0.72557,1.61604,1.61604,1.61604c0.89047,0,1.61604-0.72557,1.61604-1.61604 C17.54556,10.94948,17.01787,10.28988,16.25932,10.12497z M4.38639,0.92345L5.30984,2.1767h-1.8469L4.38639,0.92345z M7.28866,15.20395v1.45114H4.38639H1.5171v-1.45114l1.3522-1.45114h0.13192h2.77035h0.13192L7.28866,15.20395z M5.44176,5.93647 v1.25325L3.33102,8.34403V7.09078L5.44176,5.93647z M3.33102,6.29925V5.63964h1.25325L3.33102,6.29925z M5.44176,7.91529v1.25325 l-2.11074,1.15431V9.0696L5.44176,7.91529z M5.44176,9.89411v1.25325l-2.11074,1.15431v-1.25325L5.44176,9.89411z M5.44176,11.90591v1.18729l-2.11074-0.03298L5.44176,11.90591z M0.65961,4.98004v-2.1767h8.27807l5.34282,2.1767H0.65961z"></path> </g> </g> </svg> <svg id="g5ere__bed" viewBox="0 -59 512 512" xmlns="http://www.w3.org/2000/svg"><path d="m472.667969 197.867188v-176.589844c0-11.046875-8.953125-20-20-20s-20 8.953125-20 20v36.679687c-104.597657-77.265625-248.707031-77.289062-353.335938 0v-37.914062c0-11.046875-8.953125-20.0000002-20-20.0000002s-20 8.9531252-20 20.0000002v177.824219c-22.460937 4.902343-39.332031 24.933593-39.332031 48.84375v88c0 11.046874 8.953125 20 20 20h39v19.332031c0 11.046875 8.953125 20 20 20s20-8.953125 20-20v-19.332031h314v19.332031c0 11.046875 8.953125 20 20 20s20-8.953125 20-20v-19.332031h39c11.046875 0 20-8.953126 20-20v-88c0-23.910157-16.871094-43.941407-39.332031-48.84375zm-40-87.878907v86.71875h-78v-58.664062c0-11.046875-8.953125-20-20-20h-157.335938c-11.046875 0-20 8.953125-20 20v58.664062h-78v-86.71875c98.519531-92.632812 253.390625-93.972656 353.335938 0zm-235.335938 86.722657v-38.667969h117.335938v38.667969zm274.667969 118h-432v-68c0-5.515626 4.484375-10 10-10h412c5.515625 0 10 4.484374 10 10zm0 0"></path></svg><svg id="g5ere__garage" viewBox="0 0 511.99969 511" xmlns="http://www.w3.org/2000/svg"><path d="m2.117188 147.441406c-4.941407-9.878906-.9375-21.890625 8.941406-26.832031l235.996094-118c5.632812-2.8125 12.257812-2.8125 17.890624 0l235.996094 118c9.878906 4.941406 13.882813 16.953125 8.941406 26.832031-4.917968 9.839844-16.914062 13.902344-26.832031 8.945313l-227.050781-113.527344-227.050781 113.527344c-9.882813 4.941406-21.894531.933593-26.832031-8.945313zm509.878906 345.050782c0 11.046874-8.957032 20-20 20h-471.992188c-11.046875 0-19.99999975-8.953126-19.99999975-20 0-11.046876 8.95312475-20 19.99999975-20h97.996094v-38.667969h-58.664062c-11.046876 0-20-8.953125-20-20v-55.84375c0-31.113281 16.5625-60.03125 42.855468-75.96875l36.835938-110.507813c2.722656-8.164062 10.363281-13.671875 18.972656-13.671875h235.996094c8.609375 0 16.25 5.507813 18.976562 13.671875l36.832032 110.507813c26.296874 15.9375 42.859374 44.855469 42.859374 75.96875v55.84375c0 11.046875-8.957031 20-20 20h-58.667968v38.667969h98c11.042968 0 20 8.953124 20 20zm-385.578125-216.664063h259.164062l-26-78h-207.167969zm-47.082031 118h353.328124v-35.847656c0-17.371094-9.402343-33.492188-24.257812-42.152344h-304.8125c-14.855469 8.660156-24.257812 24.78125-24.257812 42.152344zm78.664062 78.664063h195.996094v-38.667969h-195.996094zm0 0"></path></svg> </defs> </svg>