<svg xmlns="http://www.w3.org/2000/svg" width="20" height="16" viewBox="0 0 20 16" fill="none"><path d="M19.7784 5.30549L14.3865 0.964434C14.1688 0.78916 13.8586 0.789238 13.6409 0.964434L12.0069 2.27986L10.373 0.964434C10.1554 0.78916 9.84508 0.789238 9.6275 0.964434L7.99344 2.27986L6.35957 0.964434C6.14191 0.78916 5.83168 0.789238 5.61402 0.964434L0.22168 5.30549C0.0815234 5.4183 0 5.58857 0 5.76854V14.5723C0 14.9006 0.266172 15.1667 0.594453 15.1667H4.29664C4.62492 15.1667 4.89109 14.9006 4.89109 14.5723V11.9197C4.89109 11.3156 5.3825 10.8242 5.98652 10.8242C6.59055 10.8242 7.08199 11.3156 7.08199 11.9197V14.5723C7.08199 14.9006 7.34816 15.1667 7.67645 15.1667H7.99344H19.4055C19.7338 15.1667 20 14.9006 20 14.5723V5.76854C20 5.58857 19.9185 5.4183 19.7784 5.30549ZM10.7842 13.9778H9.21578V13.9778H8.58785H8.27086V11.9197C8.27086 10.6601 7.24609 9.63533 5.98648 9.63533C4.72684 9.63533 3.70215 10.6601 3.70215 11.9197V13.9778H1.18891V6.05311L5.98676 2.19061L10.7842 6.05307V13.9778ZM14.7977 13.9778H11.9731V5.76854C11.9731 5.58857 11.8916 5.41834 11.7514 5.30549L8.94137 3.04307L10.0002 2.19064L14.7977 6.05311V13.9778ZM18.8111 13.9778H15.9865V5.76854C15.9865 5.58857 15.905 5.41838 15.7649 5.30549L12.9548 3.04303L14.0137 2.19061L18.8111 6.05307V13.9778Z" fill="#65B110"></path></svg>