<svg width="100" height="100" viewBox="0 0 100 100" fill="none" xmlns="http://www.w3.org/2000/svg"> <mask id="mask0_732_4765" style="mask-type:alpha" maskUnits="userSpaceOnUse" x="0" y="0" width="100" height="100"> <rect width="100" height="100" fill="url(#ube_svg_gradient_63f88c184915c)" class="ube-svg-fill"></rect> </mask> <g mask="url(#mask0_732_4765)"> <path d="M31.6982 35.6477H9.29457C8.38739 35.6477 7.65186 34.913 7.65186 34.005C7.65186 33.0978 8.38739 32.3623 9.29457 32.3623H31.6974C32.6045 32.3623 33.3401 33.0978 33.3401 34.005C33.3401 34.913 32.6045 35.6477 31.6974 35.6477H31.6982Z" fill="url(#ube_svg_gradient_63f88c184915c)" class="ube-svg-fill"></path> <path d="M31.6982 45.9529H9.29457C8.38739 45.9529 7.65186 45.2174 7.65186 44.3102C7.65186 43.403 8.38739 42.6675 9.29457 42.6675H31.6974C32.6045 42.6675 33.3401 43.403 33.3401 44.3102C33.3401 45.2174 32.6045 45.9529 31.6974 45.9529H31.6982Z" fill="url(#ube_svg_gradient_63f88c184915c)" class="ube-svg-fill"></path> <path d="M31.6982 56.2586H9.29457C8.38739 56.2586 7.65186 55.5238 7.65186 54.6159C7.65186 53.7087 8.38739 52.9731 9.29457 52.9731H31.6974C32.6045 52.9731 33.3401 53.7087 33.3401 54.6159C33.3401 55.5238 32.6045 56.2586 31.6974 56.2586H31.6982Z" fill="url(#ube_svg_gradient_63f88c184915c)" class="ube-svg-fill"></path> <path d="M31.6982 25.343H9.29457C8.38739 25.343 7.65186 24.6075 7.65186 23.7003C7.65186 22.7931 8.38739 22.0576 9.29457 22.0576H31.6974C32.6045 22.0576 33.3401 22.7931 33.3401 23.7003C33.3401 24.6075 32.6045 25.343 31.6974 25.343H31.6982Z" fill="url(#ube_svg_gradient_63f88c184915c)" class="ube-svg-fill"></path> <path d="M55.6216 56.0349H45.588C44.6808 56.0349 43.9453 55.2994 43.9453 54.3922C43.9453 53.485 44.6808 52.7495 45.588 52.7495H55.6216C56.5287 52.7495 57.2643 53.485 57.2643 54.3922C57.2643 55.2994 56.5287 56.0349 55.6216 56.0349Z" fill="url(#ube_svg_gradient_63f88c184915c)" class="ube-svg-fill"></path> <path d="M51.4129 64.5476H45.588C44.6808 64.5476 43.9453 63.8129 43.9453 62.9049C43.9453 61.9977 44.6808 61.2622 45.588 61.2622H51.4129C52.3201 61.2622 53.0556 61.9977 53.0556 62.9049C53.0556 63.8129 52.3201 64.5476 51.4129 64.5476Z" fill="url(#ube_svg_gradient_63f88c184915c)" class="ube-svg-fill"></path> <path d="M49.8087 73.7332H45.588C44.6808 73.7332 43.9453 72.9976 43.9453 72.0905C43.9453 71.1833 44.6808 70.4478 45.588 70.4478H49.8087C50.7167 70.4478 51.4514 71.1833 51.4514 72.0905C51.4514 72.9976 50.7167 73.7332 49.8087 73.7332Z" fill="url(#ube_svg_gradient_63f88c184915c)" class="ube-svg-fill"></path> <path d="M55.2213 46.8499H45.588C44.6808 46.8499 43.9453 46.1143 43.9453 45.2072C43.9453 44.3 44.6808 43.5645 45.588 43.5645H55.2213C56.1285 43.5645 56.864 44.3 56.864 45.2072C56.864 46.1143 56.1285 46.8499 55.2213 46.8499Z" fill="url(#ube_svg_gradient_63f88c184915c)" class="ube-svg-fill"></path> <path d="M55.2213 37.888H45.588C44.6808 37.888 43.9453 37.1532 43.9453 36.2452C43.9453 35.3381 44.6808 34.6025 45.588 34.6025H55.2213C56.1285 34.6025 56.864 35.3381 56.864 36.2452C56.864 37.1532 56.1285 37.888 55.2213 37.888Z" fill="url(#ube_svg_gradient_63f88c184915c)" class="ube-svg-fill"></path> <path d="M74.1 87.0579C69.536 87.0531 65.8383 83.3546 65.8335 78.7914C65.8335 77.8842 66.569 77.1487 67.4762 77.1487C68.3834 77.1487 69.1189 77.8842 69.1189 78.7914C69.1189 81.5418 71.3488 83.7725 74.1 83.7725C76.8504 83.7725 79.0803 81.5418 79.0803 78.7914C79.0803 76.0402 76.8504 73.8103 74.1 73.8103C69.5344 73.8103 65.8335 70.1094 65.8335 65.5438C65.8335 60.9791 69.5344 57.2773 74.1 57.2773C78.6648 57.2781 82.3657 60.9791 82.3657 65.5446C82.3657 66.4518 81.6301 67.1873 80.723 67.1873C79.8158 67.1873 79.0803 66.4518 79.0803 65.5446C79.0803 62.7934 76.8504 60.5636 74.1 60.5628C71.3488 60.5628 69.1189 62.7934 69.1189 65.5438C69.1189 68.2951 71.3488 70.5249 74.1 70.5249C78.6648 70.5249 82.3657 74.2258 82.3657 78.7914C82.3657 83.357 78.6648 87.0579 74.1 87.0579Z" fill="url(#ube_svg_gradient_63f88c184915c)" class="ube-svg-fill"></path> <path d="M74.0997 60.5106C73.1926 60.5106 72.457 59.7751 72.457 58.8679V55.2809C72.457 54.3737 73.1926 53.6382 74.0997 53.6382C75.0069 53.6382 75.7425 54.3737 75.7425 55.2809V58.8679C75.7425 59.7751 75.0069 60.5106 74.0997 60.5106Z" fill="url(#ube_svg_gradient_63f88c184915c)" class="ube-svg-fill"></path> <path d="M74.0997 90.9976C73.1926 90.9976 72.457 90.262 72.457 89.3549V85.4093C72.457 84.5021 73.1926 83.7666 74.0997 83.7666C75.0069 83.7666 75.7425 84.5021 75.7425 85.4093V89.3549C75.7425 90.262 75.0069 90.9976 74.0997 90.9976Z" fill="url(#ube_svg_gradient_63f88c184915c)" class="ube-svg-fill"></path> <path fill-rule="evenodd" clip-rule="evenodd" d="M63.416 47.9497C66.7672 46.4113 70.412 45.6164 74.1 45.6204C86.5848 45.6196 97.2632 54.5935 99.4113 66.893C101.559 79.1917 94.5545 91.2545 82.8085 95.4856C71.0617 99.7159 57.9737 94.8905 51.7863 84.046H1.64271C0.73553 84.046 0 83.3105 0 82.4033V14.5645C0 13.6573 0.73553 12.9218 1.64271 12.9218H6.59731V6.97337C6.59731 6.06619 7.33284 5.33066 8.24002 5.33066H18.6297V1.74525C18.6297 0.838069 19.3652 0.102539 20.2724 0.102539C21.1796 0.102539 21.9151 0.838069 21.9151 1.74525V5.33066H32.7451C33.6523 5.33066 34.3878 6.06619 34.3878 6.97337V12.9218H39.3432C40.2504 12.9218 40.9859 13.6573 40.9859 14.5645V22.093H43.8647V16.2465C43.8647 15.3393 44.6002 14.6038 45.5074 14.6038H49.9543V12.1846C49.9543 11.2775 50.6898 10.5419 51.597 10.5419C52.5042 10.5419 53.2397 11.2775 53.2397 12.1846V14.6038H57.5743C58.4815 14.6038 59.217 15.3393 59.217 16.2465V22.093H61.7733C62.6805 22.093 63.416 22.8286 63.416 23.7358V47.9497ZM31.1024 8.61608H9.88273V12.9218H31.1024V8.61608ZM26.39 80.7606H21.9151V69.0338H26.39V80.7606ZM14.5951 80.7606H18.6297V69.0338H14.5951V80.7606ZM37.6997 80.7606H29.6755V67.3911C29.6755 66.4839 28.9399 65.7484 28.0328 65.7484H12.9524C12.0452 65.7484 11.3097 66.4839 11.3097 67.3911V80.7606H3.28542V16.2072H37.7005L37.6997 80.7606ZM55.9316 17.8892H47.1501V22.093H55.9316V17.8892ZM40.9859 80.7606V25.3785H60.1314V49.76C49.8596 56.4087 45.7047 69.3819 50.2029 80.7606H40.9859ZM51.69 71.3166C51.69 83.6928 61.7239 93.7254 74.1 93.725C86.4701 93.7114 96.4956 83.6867 96.5092 71.3158C96.5092 58.9393 86.4757 48.9058 74.0992 48.9058C61.7228 48.9066 51.6892 58.9401 51.69 71.3166Z" fill="url(#ube_svg_gradient_63f88c184915c)" class="ube-svg-fill"></path> </g> </svg>