<svg width="100" height="100" viewBox="0 0 100 100" fill="none" xmlns="http://www.w3.org/2000/svg"> <mask id="mask0_732_4796" style="mask-type:alpha" maskUnits="userSpaceOnUse" x="0" y="0" width="100" height="100"> <rect width="100" height="100" fill="url(#ube_svg_gradient_63f88c184df0e)" class="ube-svg-fill"></rect> </mask> <g mask="url(#mask0_732_4796)"> <path fill-rule="evenodd" clip-rule="evenodd" d="M95.5432 79.9311L99.4997 87.2902C99.518 87.3243 99.5347 87.3589 99.5499 87.3943C99.8157 88.0259 99.7475 88.7486 99.3683 89.3193C98.9891 89.8901 98.3493 90.233 97.6641 90.2327H91.6682V94.0406H96.6027C97.2762 94.0406 97.8222 94.5866 97.8222 95.2602C97.8222 95.9337 97.2762 96.4797 96.6027 96.4797H3.10678C2.43326 96.4797 1.88727 95.9337 1.88727 95.2602C1.88727 94.5866 2.43326 94.0406 3.10678 94.0406H8.04052V90.2327L1.92121 90.2289C1.25941 90.1887 0.658156 89.8302 0.308164 89.2671C-0.0418281 88.704 -0.0971189 88.0061 0.15983 87.3949C0.174871 87.359 0.191538 87.3241 0.20983 87.2902L4.16633 79.9311H3.89621C3.20761 79.9312 2.56519 79.5847 2.18704 79.0093C1.80888 78.4338 1.74579 77.7066 2.01918 77.0746C2.03656 77.0344 2.0561 76.9952 2.07772 76.9571L5.57589 70.7864C4.91835 70.6958 4.34569 70.2917 4.04002 69.7026C3.73434 69.1134 3.7337 68.4125 4.03829 67.8228C4.05495 67.7902 4.07264 67.7583 4.09296 67.7276L9.20211 59.7071V29.8884C9.20211 29.2149 9.7481 28.6689 10.4216 28.6689H12.206V19.1888C12.206 18.5153 12.752 17.9693 13.4255 17.9693H20.5865V5.21951C20.5865 4.54599 21.1325 4 21.806 4C22.4795 4 23.0255 4.54599 23.0255 5.21951V17.9693H30.1865C30.86 17.9693 31.406 18.5153 31.406 19.1888V28.6689H32.973C33.6466 28.6689 34.1926 29.2149 34.1926 29.8884V38.9553H36.3917V33.274C36.3917 32.6005 36.9377 32.0545 37.6113 32.0545H40.2547V27.0774C40.2547 26.4039 40.8007 25.8579 41.4743 25.8579H58.2352C58.9088 25.8579 59.4548 26.4039 59.4548 27.0774V32.0545H62.0982C62.7718 32.0545 63.3178 32.6005 63.3178 33.274V38.9553H65.5169V29.8884C65.5169 29.2149 66.0629 28.6689 66.7365 28.6689H68.5208V19.1888C68.5208 18.5153 69.0668 17.9693 69.7403 17.9693H76.8873V5.21951C76.8873 4.54599 77.4333 4 78.1068 4C78.7803 4 79.3263 4.54599 79.3263 5.21951V17.9693H86.5011C87.1746 17.9693 87.7206 18.5153 87.7206 19.1888V28.6689H89.2879C89.9614 28.6689 90.5074 29.2149 90.5074 29.8884V59.7071L95.6159 67.7276C95.6356 67.7587 95.6541 67.7909 95.671 67.8234C95.9753 68.4131 95.9744 69.1138 95.6686 69.7028C95.3629 70.2918 94.7904 70.6958 94.133 70.7864L97.631 76.9577C97.6523 76.9954 97.6716 77.0341 97.6889 77.0738C97.9627 77.7058 97.8999 78.4332 97.5218 79.0089C97.1438 79.5846 96.5012 79.9312 95.8125 79.9311H95.5432ZM85.2816 20.4083H70.9598V28.6689H85.2816V20.4083ZM67.956 31.1079H88.0684V57.6049C88.0652 57.6049 88.0622 57.6045 88.0591 57.6042L88.059 57.6042L88.059 57.6042L88.0543 57.6037L88.0497 57.6035C87.3077 57.6015 86.6235 58.0034 86.2639 58.6524L83.7476 62.6022C83.5316 62.428 83.2624 62.3331 82.9848 62.3333H73.2287C72.5552 62.3333 72.0092 62.8793 72.0092 63.5528C72.0092 64.2264 72.5552 64.7724 73.2287 64.7724H82.3653L80.4826 67.7276C80.4623 67.7583 80.4448 67.7902 80.4279 67.8228C80.1234 68.4125 80.1241 69.1134 80.4298 69.7026C80.7355 70.2917 81.3082 70.6958 81.9657 70.7864L80.5023 73.3677H68.234L67.956 72.936V31.1079ZM80.2852 79.9311C79.5975 79.9316 78.9557 79.5857 78.5779 79.011C78.198 78.4353 78.1343 77.7067 78.4086 77.0738C78.4259 77.0336 78.4454 76.9944 78.4669 76.9563L79.1194 75.8057H69.4615C69.4674 76.5511 69.0155 77.2238 68.3232 77.5002L70.708 81.6614C70.7297 81.6992 70.7493 81.7381 70.7667 81.7781C71.0163 82.3447 70.9595 82.9995 70.6161 83.5146C70.3389 83.9319 69.9029 84.2174 69.4096 84.3049L72.0982 89.252C72.1169 89.2863 72.1339 89.3214 72.1491 89.3573C72.3881 89.9221 72.3276 90.5691 71.9881 91.0797C71.6485 91.5904 71.0753 91.8965 70.4621 91.8945H67.1401V94.0406H84.4295V90.2327L78.3102 90.2289C77.6484 90.1888 77.0471 89.8303 76.6971 89.2672C76.3471 88.704 76.2918 88.0061 76.5489 87.3949C76.5639 87.359 76.5806 87.3241 76.5989 87.2902L80.5554 79.9311H80.2852ZM60.7338 89.4555H57.2224L60.3525 83.6967C60.5579 83.3189 60.549 82.8607 60.3292 82.4911C60.1093 82.1214 59.7111 81.8949 59.281 81.8949H58.6243L61.4163 77.0234C61.6326 76.646 61.6315 76.1819 61.4133 75.8056C61.1952 75.4292 60.7932 75.1976 60.3582 75.1976H60.143L63.3275 70.2528L66.5117 75.1976H66.2966C65.8616 75.1976 65.4596 75.4292 65.2415 75.8056C65.0234 76.1819 65.0222 76.646 65.2385 77.0234L68.0302 81.8949H67.3751C66.945 81.8949 66.5467 82.1214 66.3269 82.4911C66.107 82.8607 66.0982 83.3189 66.3035 83.6967L69.4336 89.4555H65.9214C65.2479 89.4555 64.7019 90.0015 64.7019 90.675V94.0406H61.9533V90.675C61.9533 90.0015 61.4073 89.4555 60.7338 89.4555ZM57.0157 28.297H42.6938V32.0545H57.0157V28.297ZM38.8308 34.4935H60.8787V38.9553H38.8308V34.4935ZM65.5178 69.148V41.3943H34.1926V69.1468L34.7895 68.2197C35.1165 67.6489 35.724 67.2968 36.3819 67.2968C37.0397 67.2968 37.6473 67.6489 37.9743 68.2197L42.2582 74.8728C42.2783 74.9039 42.2968 74.9358 42.3139 74.9685C42.5517 75.4244 42.5856 75.9596 42.4073 76.4419C42.2289 76.9241 41.8549 77.3085 41.3777 77.5L43.7623 81.6614C43.7841 81.6993 43.8038 81.7384 43.8214 81.7785C44.0707 82.345 44.0139 82.9996 43.6706 83.5146C43.3933 83.9319 42.9572 84.2175 42.4639 84.3049L45.1527 89.252C45.1714 89.2863 45.1884 89.3214 45.2035 89.3573C45.4424 89.9221 45.3819 90.569 45.0424 91.0796C44.7029 91.5903 44.1297 91.8963 43.5165 91.8945H40.1946V94.0406H59.5145V91.8945H56.1932C55.5799 91.8965 55.0067 91.5904 54.6672 91.0797C54.3276 90.5691 54.2671 89.9221 54.5062 89.3573C54.5213 89.3214 54.5383 89.2863 54.557 89.252L57.2454 84.3063C56.6943 84.2098 56.218 83.8658 55.9531 83.373C55.6881 82.8803 55.6639 82.2932 55.8873 81.7803C55.9049 81.74 55.9247 81.7007 55.9466 81.6626L58.3314 77.5018C57.854 77.3103 57.48 76.9258 57.3016 76.4433C57.1233 75.9609 57.1573 75.4255 57.3952 74.9695C57.4123 74.9368 57.4304 74.9051 57.4507 74.874L61.736 68.2207C62.0631 67.6499 62.6706 67.2978 63.3284 67.2978C63.9863 67.2978 64.5938 67.6499 64.9208 68.2207L65.5178 69.148ZM23.1598 87.3943C23.1448 87.3585 23.1281 87.3236 23.1098 87.2896L19.1533 79.9305H19.4226C20.1114 79.9306 20.7539 79.584 21.132 79.0083C21.5101 78.4325 21.5729 77.7052 21.2991 77.0732C21.2818 77.0335 21.2624 76.9948 21.2411 76.9571L20.5887 75.8059H30.2468C30.2442 76.1438 30.3361 76.4757 30.5121 76.7642C30.7175 77.0968 31.0237 77.3552 31.386 77.5018L29.0011 81.6626C28.9793 81.7005 28.9596 81.7396 28.9421 81.7797C28.719 82.2924 28.7433 82.8792 29.0082 83.3718C29.273 83.8643 29.7491 84.2082 30.2999 84.3049L27.6113 89.252C27.5927 89.2862 27.5758 89.3213 27.5604 89.3573C27.3215 89.9221 27.382 90.569 27.7216 91.0796C28.0611 91.5903 28.6342 91.8963 29.2474 91.8945H32.5688V94.0406H15.2783V90.2327H21.2743C21.9592 90.2326 22.5986 89.8897 22.9775 89.3192C23.3565 88.7486 23.4247 88.0263 23.1592 87.3949L23.1598 87.3943ZM30.2767 89.4549H33.7883V89.4555C34.4618 89.4555 35.0078 90.0015 35.0078 90.675V94.0406H37.7556V90.6744C37.7556 90.0009 38.3016 89.4549 38.9751 89.4549H42.4869L39.3568 83.6961C39.1514 83.3183 39.1603 82.8601 39.3801 82.4905C39.6 82.1208 39.9982 81.8943 40.4283 81.8943H41.0844L38.2928 77.0228C38.0765 76.6453 38.0776 76.1813 38.2957 75.805C38.5139 75.4286 38.9159 75.1969 39.3509 75.197H39.5657L36.3818 70.2522L33.1972 75.197H33.4123C33.8473 75.1969 34.2493 75.4286 34.4674 75.805C34.6855 76.1813 34.6867 76.6453 34.4704 77.0228L31.6783 81.8943H32.3352C32.7653 81.8943 33.1636 82.1208 33.3834 82.4905C33.6033 82.8601 33.6121 83.3183 33.4068 83.6961L30.2767 89.4549ZM28.9669 20.4083V28.6689H14.645V20.4083H28.9669ZM31.7535 72.935V31.1079H11.6411V57.6049C11.644 57.6048 11.6467 57.6045 11.6495 57.6042L11.6496 57.6042C11.653 57.6038 11.6564 57.6035 11.6598 57.6035C12.4018 57.6015 13.0861 58.0034 13.4458 58.6524L16.0375 62.7215C16.2674 62.4739 16.59 62.3332 16.9279 62.3333H26.684C27.3575 62.3333 27.9035 62.8793 27.9035 63.5528C27.9035 64.2264 27.3575 64.7724 26.684 64.7724H17.3438L19.2257 67.7274C19.2454 67.7585 19.2639 67.7906 19.2808 67.8232C19.585 68.4129 19.5841 69.1136 19.2784 69.7026C18.9727 70.2916 18.4001 70.6956 17.7428 70.7862L19.2062 73.3675H31.4749L31.7535 72.935ZM9.26003 87.7937H2.70841L7.28158 79.289C7.48476 78.9111 7.47435 78.4542 7.25418 78.0859C7.03402 77.7176 6.63649 77.4921 6.20739 77.4921H4.57812L8.71918 70.1878C8.93321 69.8103 8.93047 69.3474 8.71198 68.9724C8.4935 68.5975 8.09219 68.3668 7.6582 68.3669H6.57772L11.659 60.3888L16.7403 68.3669H15.6613C15.2273 68.3668 14.826 68.5975 14.6075 68.9724C14.389 69.3474 14.3862 69.8103 14.6003 70.1878L18.7403 77.4921H17.1131C16.684 77.4921 16.2865 77.7176 16.0663 78.0859C15.8461 78.4542 15.8357 78.9111 16.0389 79.289L20.6121 87.7937H14.0588C13.3853 87.7937 12.8393 88.3397 12.8393 89.0132V94.0406H10.4795V89.0132C10.4795 88.3397 9.93355 87.7937 9.26003 87.7937ZM89.2291 89.0132C89.2291 88.3397 89.7751 87.7937 90.4487 87.7937H97.0015L92.4283 79.289C92.2252 78.9111 92.2356 78.4542 92.4557 78.0859C92.6759 77.7176 93.0734 77.4921 93.5025 77.4921H95.1298L90.9897 70.1878C90.7757 69.8103 90.7784 69.3475 90.9969 68.9725C91.2153 68.5976 91.6165 68.3669 92.0505 68.3669H93.1308L88.0495 60.3888L82.9682 68.3669H84.0487C84.4826 68.3668 84.8839 68.5975 85.1024 68.9724C85.3209 69.3474 85.3237 69.8103 85.1096 70.1878L80.9686 77.4921H82.597C83.0261 77.4921 83.4237 77.7176 83.6438 78.0859C83.864 78.4542 83.8744 78.9111 83.6712 79.289L79.098 87.7937H85.6499C86.3234 87.7937 86.8694 88.3397 86.8694 89.0132V94.0406H89.2291V89.0132Z" fill="url(#ube_svg_gradient_63f88c184df0e)" class="ube-svg-fill"></path> <path d="M16.928 44.0406H26.6841C27.3576 44.0406 27.9036 43.4946 27.9036 42.8211C27.9036 42.1476 27.3576 41.6016 26.6841 41.6016H16.928C16.2545 41.6016 15.7085 42.1476 15.7085 42.8211C15.7085 43.4946 16.2545 44.0406 16.928 44.0406Z" fill="url(#ube_svg_gradient_63f88c184df0e)" class="ube-svg-fill"></path> <path d="M16.928 50.9512H26.6841C27.3576 50.9512 27.9036 50.4052 27.9036 49.7317C27.9036 49.0582 27.3576 48.5122 26.6841 48.5122H16.928C16.2545 48.5122 15.7085 49.0582 15.7085 49.7317C15.7085 50.4052 16.2545 50.9512 16.928 50.9512Z" fill="url(#ube_svg_gradient_63f88c184df0e)" class="ube-svg-fill"></path> <path d="M16.928 57.8619H26.6841C27.3576 57.8619 27.9036 57.3159 27.9036 56.6424C27.9036 55.9688 27.3576 55.4229 26.6841 55.4229H16.928C16.2545 55.4229 15.7085 55.9688 15.7085 56.6424C15.7085 57.3159 16.2545 57.8619 16.928 57.8619Z" fill="url(#ube_svg_gradient_63f88c184df0e)" class="ube-svg-fill"></path> <path d="M73.2288 44.0406H82.9849C83.6584 44.0406 84.2044 43.4946 84.2044 42.8211C84.2044 42.1476 83.6584 41.6016 82.9849 41.6016H73.2288C72.5553 41.6016 72.0093 42.1476 72.0093 42.8211C72.0093 43.4946 72.5553 44.0406 73.2288 44.0406Z" fill="url(#ube_svg_gradient_63f88c184df0e)" class="ube-svg-fill"></path> <path d="M73.2288 50.9512H82.9849C83.6584 50.9512 84.2044 50.4052 84.2044 49.7317C84.2044 49.0582 83.6584 48.5122 82.9849 48.5122H73.2288C72.5553 48.5122 72.0093 49.0582 72.0093 49.7317C72.0093 50.4052 72.5553 50.9512 73.2288 50.9512Z" fill="url(#ube_svg_gradient_63f88c184df0e)" class="ube-svg-fill"></path> <path d="M73.2288 57.8619H82.9849C83.6584 57.8619 84.2044 57.3159 84.2044 56.6424C84.2044 55.9688 83.6584 55.4229 82.9849 55.4229H73.2288C72.5553 55.4229 72.0093 55.9688 72.0093 56.6424C72.0093 57.3159 72.5553 57.8619 73.2288 57.8619Z" fill="url(#ube_svg_gradient_63f88c184df0e)" class="ube-svg-fill"></path> </g> </svg>