<svg width="100" height="100" viewBox="0 0 100 100" fill="none" xmlns="http://www.w3.org/2000/svg"> <mask id="mask0_732_4745" style="mask-type:alpha" maskUnits="userSpaceOnUse" x="0" y="0" width="100" height="100"> <rect width="100" height="100" fill="url(#ube_svg_gradient_63f88c1844281)" class="ube-svg-fill"></rect> </mask> <g mask="url(#mask0_732_4745)"> <path fill-rule="evenodd" clip-rule="evenodd" d="M97.5014 84.9424L80.7383 68.8322C80.2618 68.3742 79.5078 68.3742 79.0314 68.8322L75.15 72.562L68.8021 66.4611C75.4813 59.6096 79.5792 50.4014 79.5792 40.2877C79.58 19.1755 61.73 2 39.79 2C17.85 2 0 19.1755 0 40.2877C0 61.3999 17.8508 78.5761 39.79 78.5761C49.846 78.6106 59.5547 74.9017 67.0271 68.172L73.3717 74.2704L69.5176 77.9754C69.2762 78.2072 69.139 78.528 69.139 78.8633C69.139 79.1986 69.2762 79.5194 69.5176 79.752L86.288 95.8679C89.4339 98.8397 94.3524 98.8373 97.495 95.8623C97.5985 95.7644 97.6988 95.6634 97.7974 95.5599C100.644 92.5448 100.512 87.7939 97.5014 84.9424ZM39.79 76.1129C19.208 76.1129 2.46407 60.0419 2.46407 40.2893C2.46407 20.5358 19.2088 4.46407 39.79 4.46407C60.3712 4.46407 77.116 20.5342 77.116 40.2877C77.116 60.0411 60.3712 76.1121 39.79 76.1121V76.1129ZM95.7954 94.0784C95.8716 94.0062 95.9398 93.938 96.0055 93.8683V93.8699C97.9218 91.8413 97.8303 88.6433 95.8018 86.7271L79.8848 71.4294L72.1493 78.8641L87.9885 94.0848C90.1814 96.1527 93.6064 96.1494 95.7954 94.0784Z" fill="url(#ube_svg_gradient_63f88c1844281)" class="ube-svg-fill"></path> <path fill-rule="evenodd" clip-rule="evenodd" d="M58.0763 36.0557V63.3112C58.0763 63.9914 57.5253 64.5432 56.8443 64.5432H22.7348C22.0546 64.5432 21.5027 63.9914 21.5027 63.3112V36.0557H15.6714C15.1372 36.0557 14.6648 35.7124 14.4996 35.2046C14.3343 34.6969 14.5148 34.141 14.9455 33.8274L39.0648 16.2685C39.4972 15.9541 40.0827 15.9541 40.515 16.2685L55.9563 27.51V22.2073C55.9563 21.5263 56.5082 20.9753 57.1884 20.9753C57.8686 20.9753 58.4204 21.5263 58.4204 22.2073V29.3035L64.6335 33.8274C65.0659 34.141 65.2463 34.6977 65.0811 35.2054C64.9159 35.7132 64.4418 36.0565 63.9084 36.0557H58.0763ZM55.6122 62.0791V34.8236C55.6122 34.1434 56.1641 33.5916 56.8443 33.5916H60.1233L39.7899 18.7887L19.4566 33.5916H22.7356C23.4158 33.5916 23.9676 34.1434 23.9676 34.8236V62.0791H55.6122Z" fill="url(#ube_svg_gradient_63f88c1844281)" class="ube-svg-fill"></path> <path fill-rule="evenodd" clip-rule="evenodd" d="M32.3979 35.3536C32.3979 31.2709 35.7074 27.9614 39.7901 27.9614C43.8705 27.9654 47.1775 31.2725 47.1823 35.3536C47.1823 39.4355 43.8729 42.7458 39.7901 42.7458C35.7074 42.7458 32.3979 39.4355 32.3979 35.3536ZM34.862 35.3536C34.862 38.0752 37.0686 40.2818 39.7901 40.2818C42.5109 40.2785 44.7151 38.0736 44.7183 35.3536C44.7183 32.6313 42.5117 30.4255 39.7901 30.4255C37.0686 30.4255 34.862 32.6313 34.862 35.3536Z" fill="url(#ube_svg_gradient_63f88c1844281)" class="ube-svg-fill"></path> </g> </svg>